<?xml version="1.0" encoding="UTF-8" standalone="no"?> <svg xmlns="http://www.w3.org/2000/svg" viewBox="0 0 64 64"><title>2</title><g id="Layer_49" data-name="Layer 49"><path d="M50.5,13.5a26.15,26.15,0,1,0,0,37A26.2,26.2,0,0,0,50.5,13.5ZM47.67,47.67a22.16,22.16,0,1,1,0-31.35A22.19,22.19,0,0,1,47.67,47.67Z"/><path d="M32,16.47a8.76,8.76,0,0,0-8.75,8.75,2,2,0,0,0,4,0A4.75,4.75,0,1,1,32,30a2,2,0,0,0-2,2v7.56a2,2,0,0,0,4,0v-5.8a8.75,8.75,0,0,0-2-17.26Z"/><path d="M32,43.53a2,2,0,0,0,0,4h0a2,2,0,0,0,0-4Z"/></g></svg>