<svg width="1224" height="396" xmlns="http://www.w3.org/2000/svg" xmlns:xlink="http://www.w3.org/1999/xlink" xml:space="preserve" overflow="hidden"><g transform="translate(-28 -140)"><g><g><g><g><path d="M-0.000262383 0 1219.77 0 1219.77 394.194-0.000270326 394.194Z" fill="#FFFFFF" fill-rule="nonzero" fill-opacity="1" transform="matrix(1 0 0 1.00205 30.1146 141)"/><g><path d="M952.733 197.496C952.733 240.049 978.158 268.15 1016.7 268.15 1046.94 268.15 1067.55 250.486 1077.18 216.765L1097.52 228.808C1084.14 267.615 1054.7 289.293 1015.09 289.293 961.833 289.293 925.97 252.895 925.97 198.834 925.97 144.772 963.171 104.628 1013.49 104.628 1038.38 104.628 1055.5 112.657 1071.56 131.926L1070.76 107.839 1091.1 107.839C1090.3 128.179 1090.03 133.264 1090.03 143.702 1090.03 152.534 1090.03 154.942 1090.56 169.127L1070.22 169.127C1067.01 154.139 1062.73 146.378 1054.17 139.152 1042.86 130.32 1028.9 125.601 1014.56 125.771 978.158 125.771 952.733 155.21 952.733 197.496M906.113 261.993C906.113 273.77 906.113 278.052 906.381 286.884 888.449 286.349 887.914 286.349 884.97 286.349L784.074 286.349C779.792 286.349 778.453 286.349 762.128 286.884L762.128 266.812 784.341 267.347 784.341 126.84 762.128 127.375 762.128 107.303C778.989 107.838 780.327 107.838 784.074 107.838L879.35 107.838C891.393 107.838 896.478 107.838 906.113 107.303 905.845 125.77 905.845 129.516 905.845 135.137 905.845 141.292 905.845 145.842 906.113 161.632L884.703 161.632 885.238 127.108 809.231 127.108 809.231 185.719 872.124 185.719 872.124 204.988 809.231 204.988 809.231 267.08 886.041 267.08 885.238 232.02 906.381 232.02C906.113 244.063 906.113 247.81 906.113 261.995M747.81 136.476C747.81 154.407 747.81 161.098 748.345 172.606L727.47 172.606 727.47 127.109 688.128 127.109 688.128 267.347 716.497 266.812 716.497 286.884C699.904 286.349 698.566 286.349 694.016 286.349L657.618 286.349C653.336 286.349 651.998 286.349 635.137 286.884L635.137 266.812 663.238 267.347 663.238 127.108 623.094 127.108 623.361 173.408 602.754 173.408C603.021 163.773 603.021 152.8 603.021 115.332L603.021 107.303C613.727 107.838 619.079 107.838 636.475 107.838L711.68 107.838C723.188 107.838 728.005 107.838 748.077 107.303 747.81 119.882 747.81 124.164 747.81 136.475M1171.43 345.85 1171.43 48.343 572.472 48.343 487.164 345.85Z" fill="#009CDA" fill-rule="nonzero" fill-opacity="1" transform="matrix(1 0 0 1.00205 30.1146 141)"/><path d="M456.418 303.441 426.635 303.441 426.635 309.218 438.311 309.218 438.311 345.847 444.744 345.847 444.744 309.218 456.418 309.218ZM406.426 309.218C409.134 309.058 411.773 310.105 413.634 312.078 415.84 314.518 415.898 318.509 415.898 324.347 415.898 330.185 415.84 334.769 413.634 337.212 411.773 339.185 409.134 340.232 406.426 340.072L398.628 340.072 398.628 309.218ZM407.082 303.441 392.192 303.441 392.192 345.847 407.082 345.847C411.122 346.033 415.069 344.598 418.044 341.859 422.631 337.272 422.332 330.482 422.332 324.347 422.332 318.213 422.631 312.018 418.044 307.431 415.069 304.69 411.122 303.254 407.084 303.441M352.414 93.4188 388.104 93.4188 425.024 223.49 431.221 201.875 397.371 82.0629 349.158 82.0629ZM362.109 331.851 368.719 313.031 375.155 331.851ZM365.982 303.441 350.436 345.847 357.287 345.847 360.204 337.33 376.942 337.33 379.86 345.847 386.71 345.847 371.164 303.441ZM354.277 303.441 324.499 303.441 324.499 309.218 336.17 309.218 336.17 345.847 342.604 345.847 342.604 309.218 354.277 309.218ZM295.871 336.378 291.586 340.607C295.532 344.572 301.014 346.616 306.594 346.206 315.468 346.206 321.841 341.56 321.841 333.756 322.028 330.49 320.763 327.31 318.386 325.061 316.137 323.214 313.369 322.109 310.467 321.904L305.642 321.191C303.902 320.989 302.252 320.307 300.877 319.226 299.788 318.215 299.198 316.777 299.269 315.292 299.269 311.54 302.008 308.683 307.009 308.683 310.407 308.468 313.742 309.651 316.242 311.958L320.351 307.909C316.819 304.553 312.055 302.808 307.19 303.084 298.374 303.084 293.016 308.145 293.016 315.531 292.838 318.551 293.966 321.5 296.112 323.631 298.379 325.562 301.187 326.748 304.154 327.026L309.155 327.742C310.863 327.779 312.506 328.412 313.799 329.529 314.964 330.689 315.573 332.295 315.468 333.935 315.468 338.046 312.254 340.429 306.715 340.429 302.685 340.707 298.733 339.23 295.871 336.378M298.185 247.22 285.512 244.756 297.442 286.346 346.545 286.346 376.834 180.703 370.852 159.841 337.878 274.846 306.104 274.846ZM229.308 82.0655 229.308 275.439 205.236 275.439 205.236 229.153 193.872 226.943 193.872 286.346 240.668 286.346 240.668 93.422 279.165 93.422 316.219 222.64 322.201 201.776 287.873 82.0634ZM254.484 303.441 248.053 303.441 248.053 345.847 254.485 345.847 254.485 317.496 264.492 338.164 269.257 338.164 279.026 317.496 279.026 345.847 285.457 345.847 285.457 303.441 279.026 303.441 266.875 329.826ZM226.594 309.218C230.261 308.917 233.479 311.648 233.779 315.313 234.08 318.982 231.351 322.198 227.683 322.5 227.321 322.529 226.956 322.529 226.594 322.5L217.063 322.5 217.063 309.218ZM227.071 303.441 210.633 303.441 210.633 345.847 217.064 345.847 217.064 327.981 225.106 327.981 234.041 345.847 241.545 345.847 231.776 327.087C236.91 325.819 240.445 321.115 240.233 315.83 240.233 308.623 235.111 303.441 227.072 303.441M180.549 331.851 187.161 313.031 193.592 331.851ZM184.419 303.441 168.875 345.847 175.723 345.847 178.644 337.33 195.379 337.33 198.299 345.847 205.147 345.847 189.601 303.441ZM150.312 309.218C153.018 309.058 155.657 310.105 157.517 312.078 159.721 314.518 159.781 318.509 159.781 324.347 159.781 330.185 159.721 334.769 157.517 337.212 155.656 339.182 153.018 340.229 150.312 340.072L142.507 340.072 142.507 309.218ZM150.965 303.441 136.073 303.441 136.073 345.847 150.963 345.847C155.003 346.033 158.949 344.598 161.923 341.859 166.509 337.272 166.213 330.482 166.213 324.347 166.213 318.213 166.509 312.018 161.923 307.431 158.95 304.69 155.003 303.252 150.963 303.441M90.3321 303.441 83.9011 303.441 83.9011 331.555C83.7377 339.495 90.0414 346.062 97.9809 346.227 98.35 346.233 98.7192 346.227 99.0876 346.206 107.042 346.66 113.859 340.581 114.314 332.625 114.334 332.269 114.341 331.912 114.335 331.555L114.335 303.441 107.904 303.441 107.904 331.256C108.114 336.107 104.351 340.211 99.499 340.423 94.6468 340.633 90.5426 336.871 90.3321 332.019 90.3211 331.765 90.3211 331.51 90.3321 331.256ZM78.1235 303.441 48.343 303.441 48.343 309.218 60.0164 309.218 60.0164 345.847 66.45 345.847 66.45 309.218 78.1235 309.218ZM446.033 93.5631 459.002 48.344 48.343 48.344 48.343 92.9754 144.291 92.9439C177.881 92.936 194.734 119.285 194.771 145.63 194.784 171.955 177.984 198.272 144.291 198.272 128.708 198.277 83.7802 198.275 83.7802 198.275L83.7854 275.434 59.7013 275.434 59.7013 198.275 48.343 198.275 48.343 286.344 95.1413 286.344 95.14 209.324 144.291 209.324C227.611 209.324 227.138 82.0634 144.291 82.0634L59.7013 82.0634 59.7013 59.8495 443.734 59.8495 434.065 93.5631ZM145.18 164.368 83.7828 164.368 83.7828 175.291 145.041 175.291C178.445 175.291 181.205 115.785 143.945 115.782L83.7828 115.785 83.7828 126.689 143.934 126.689C165.476 126.687 163.264 164.368 145.18 164.368M524.351 48.3446 476.637 48.3446 473.339 59.8474 509.088 59.8474 447.442 274.846 415.67 274.846 414.216 269.774 401.546 267.31 407.003 286.346 456.108 286.346Z" fill="#4E4E4E" fill-rule="nonzero" fill-opacity="1" transform="matrix(1 0 0 1.00205 30.1146 141)"/></g></g></g></g></g></g></svg>