<svg xmlns="http://www.w3.org/2000/svg" version="1.1" viewBox="-5.0 -10.0 110.0 135.0">
 <path d="m87.5 30.062h-0.75v-3.0625c0-4.3125-3.5-7.8125-7.8125-7.8125h-9.2344c-0.70312-3.4219-3.7344-6.0156-7.375-6.0156s-6.6719 2.5938-7.375 6.0156h-9.2344c-4.3125 0-7.8125 3.5-7.8125 7.8125v3.0625h-0.75c-2.5781 0-4.6875 2.1094-4.6875 4.6875v4.6406c0 2.5781 2.1094 4.6875 4.6875 4.6875h0.75v3.0625c0 4.3125 3.5 7.8125 7.8125 7.8125h21.297l11.188 6.6719c0.25 0.14062 0.51562 0.21875 0.79688 0.21875s0.53125-0.0625 0.76562-0.20312c0.48438-0.28125 0.79688-0.79688 0.79688-1.3594v-5.5c3.5312-0.75 6.1875-3.9062 6.1875-7.6406v-3.0625h0.75c2.5781 0 4.6875-2.1094 4.6875-4.6875v-4.6406c0-2.5781-2.1094-4.6875-4.6875-4.6875zm-25.172-13.781c1.8906 0 3.5 1.2031 4.1094 2.8906h-8.2344c0.60938-1.6875 2.2188-2.8906 4.1094-2.8906zm-25.172 24.672c-0.85938 0-1.5625-0.70312-1.5625-1.5625v-4.6406c0-0.85938 0.70312-1.5625 1.5625-1.5625h0.75v7.7656zm41.828 10.875c-0.10938 0-0.20312 0.046875-0.29688 0.0625s-0.20312 0.03125-0.29688 0.0625-0.15625 0.10938-0.23438 0.15625c-0.09375 0.0625-0.1875 0.10938-0.25 0.17188s-0.10938 0.15625-0.15625 0.23438c-0.0625 0.09375-0.14062 0.17188-0.17188 0.26562s-0.046875 0.20312-0.0625 0.29688-0.0625 0.1875-0.0625 0.29688v4.1406l-9.2031-5.4844s-0.0625-0.015625-0.09375-0.03125c-0.09375-0.046875-0.1875-0.078125-0.29688-0.10938s-0.20312-0.046875-0.29688-0.0625c-0.03125 0-0.0625-0.015625-0.10938-0.015625h-21.719c-2.5781 0-4.6875-2.1094-4.6875-4.6875v-20.141c0-2.5781 2.1094-4.6875 4.6875-4.6875h33.219c2.5781 0 4.6875 2.1094 4.6875 4.6875v20.109c0 2.5625-2.0781 4.6562-4.6406 4.6875zm10.078-12.438c0 0.85938-0.70312 1.5625-1.5625 1.5625h-0.75v-7.7656h0.75c0.85938 0 1.5625 0.70312 1.5625 1.5625z"/>
 <path d="m57.359 32.719c0-3.2656-2.6562-5.9219-5.9219-5.9219s-5.9219 2.6562-5.9219 5.9219 2.6562 5.9219 5.9219 5.9219 5.9219-2.6562 5.9219-5.9219zm-5.9219 2.7812c-1.5469 0-2.7969-1.25-2.7969-2.7969s1.25-2.7969 2.7969-2.7969 2.7969 1.25 2.7969 2.7969-1.25 2.7969-2.7969 2.7969z"/>
 <path d="m73.203 26.797c-3.2656 0-5.9219 2.6562-5.9219 5.9219s2.6562 5.9219 5.9219 5.9219 5.9219-2.6562 5.9219-5.9219-2.6562-5.9219-5.9219-5.9219zm0 8.7031c-1.5469 0-2.7969-1.25-2.7969-2.7969s1.25-2.7969 2.7969-2.7969 2.7969 1.25 2.7969 2.7969-1.25 2.7969-2.7969 2.7969z"/>
 <path d="m66.688 40.281c-1.7031 1.625-3.7656 1.75-4.3594 1.75-2.3438 0-3.9375-1.3281-4.3594-1.75-0.625-0.59375-1.6094-0.57812-2.2031 0.046875s-0.57812 1.6094 0.046875 2.2031c0.82812 0.78125 3.1094 2.6094 6.5156 2.6094 1.1406 0 4.0469-0.25 6.5156-2.6094 0.625-0.59375 0.65625-1.5781 0.0625-2.2031s-1.5781-0.65625-2.2031-0.0625z"/>
 <path d="m55.094 58.078c-0.85938 0-1.5625 0.70312-1.5625 1.5625v12.5c0 2.5781-2.1094 4.6875-4.6875 4.6875h-21.656s-0.0625 0.015625-0.10938 0.015625c-0.10938 0-0.20312 0.03125-0.29688 0.0625-0.10938 0.03125-0.20312 0.0625-0.29688 0.10938-0.03125 0.015625-0.0625 0.015625-0.09375 0.03125l-9.2031 5.4844v-4.1406c0-0.85938-0.70312-1.5625-1.5625-1.5625-2.5781 0-4.6875-2.1094-4.6875-4.6875v-20.141c0-2.5781 2.1094-4.6875 4.6875-4.6875h14.672c0.85938 0 1.5625-0.70312 1.5625-1.5625s-0.70312-1.5625-1.5625-1.5625h-14.672c-4.3125 0-7.8125 3.5-7.8125 7.8125v20.141c0 3.7656 2.6875 6.9219 6.25 7.6562v5.4844c0 0.5625 0.29688 1.0781 0.79688 1.3594 0.23438 0.14062 0.5 0.20312 0.76562 0.20312s0.54688-0.078125 0.79688-0.21875l11.188-6.6719h21.219c4.3125 0 7.8125-3.5 7.8125-7.8125v-12.5c0-0.85938-0.70312-1.5625-1.5625-1.5625z"/>
 <path d="m32.844 63c0.85938 0 1.5625-0.70312 1.5625-1.5625s-0.70312-1.5625-1.5625-1.5625-1.5625 0.70312-1.5625 1.5625 0.70312 1.5625 1.5625 1.5625z"/>
 <path d="m25.016 59.875c-0.85938 0-1.5625 0.70312-1.5625 1.5625s0.70312 1.5625 1.5625 1.5625 1.5625-0.70312 1.5625-1.5625-0.70312-1.5625-1.5625-1.5625z"/>
 <path d="m42.219 61.438c0-0.85938-0.70312-1.5625-1.5625-1.5625s-1.5625 0.70312-1.5625 1.5625 0.70312 1.5625 1.5625 1.5625 1.5625-0.70312 1.5625-1.5625z"/>
</svg>